<svg width="100" height="100" viewBox="0 0 100 100" fill="none" xmlns="http://www.w3.org/2000/svg">
<g clip-path="url(#clip0_205_33)">
<path d="M49.8577 55.9748H87.3607L93.3186 50L87.3607 44.0251H49.8577C46.5652 44.0251 43.8998 46.6981 43.8998 50C43.8998 53.3018 46.5652 55.9748 49.8577 55.9748Z" fill="#1BB6C1"/>
<path d="M49.8578 22.0126C34.4615 22.0126 21.95 34.5598 21.95 50.0001C21.95 65.4403 34.4615 77.9875 49.8578 77.9875H65.4109L77.3266 66.0378H49.8578C41.0465 66.0378 33.8657 58.8365 33.8657 50.0001C33.8657 41.1636 41.0465 33.9623 49.8578 33.9623H77.3266L65.4109 22.0126H49.8578Z" fill="#1BB6C1"/>
<path d="M99.7154 77.9875V66.0378H90.7473L78.8316 77.9875H99.7154Z" fill="#1BB6C1"/>
<path d="M14.6124 14.6541C5.17391 24.088 0 36.6352 0 50C0 63.3648 5.17391 75.9119 14.6124 85.3459C24.0195 94.7799 36.5623 100 49.8577 100H99.7154V88.0503H49.8577C39.7294 88.0503 30.1968 84.0881 23.0161 76.9182C15.8667 69.717 11.9157 60.1572 11.9157 50C11.9157 39.8428 15.8667 30.283 23.0161 23.0818C30.1968 15.912 39.7294 11.9497 49.8577 11.9497H99.7154V0H49.8577C36.531 0 24.0195 5.18868 14.6124 14.6541Z" fill="#1BB6C1"/>
<path d="M90.7473 33.9623H99.7154V22.0126H78.8316L90.7473 33.9623Z" fill="#1BB6C1"/>
</g>
<defs>
<clipPath id="clip0_205_33">
<rect width="100" height="100" fill="white"/>
</clipPath>
</defs>
</svg>
