<svg width="126" height="127" viewBox="0 0 126 127" fill="none" xmlns="http://www.w3.org/2000/svg">
<path d="M120.016 61.497C121.072 61.497 122.134 61.497 123.191 61.497C124.247 61.497 125.404 61.0836 125.345 63.0323C125.291 64.7993 124.651 65.2262 123.045 65.1581C120.628 65.0491 118.206 65.1581 115.788 65.1081C114.754 65.0809 114.427 65.3216 114.355 66.4708C113.747 77.9266 109.511 87.888 102.208 96.7138C94.1707 106.439 83.7293 111.853 71.6959 114.615C69.9526 115.007 68.1643 115.159 66.3799 115.069C64.679 114.983 64.4023 115.619 64.4794 117.118C64.6019 119.535 64.4522 121.96 64.5339 124.386C64.5928 126.171 63.4407 125.948 62.266 126.062C60.9052 126.189 60.8327 125.526 60.8554 124.477C60.9052 121.833 60.8281 119.18 60.8916 116.532C60.8916 115.505 60.6966 115.142 59.5309 115.092C48.5634 114.638 38.8976 110.704 30.3477 103.891C22.2405 97.509 16.2561 88.8156 13.1843 78.9577C11.9732 75.174 10.9164 71.3448 10.9663 67.3157C10.9663 65.8167 10.5127 64.9946 8.76188 65.0945C6.42595 65.2308 4.06734 64.9855 1.74049 65.1763C-0.0738259 65.3262 0.148427 64.3405 0.0395686 63.1549C-0.0965049 61.6469 0.515826 61.4107 1.85388 61.4652C4.18981 61.5696 6.53935 61.4152 8.87527 61.5242C10.3086 61.5924 10.9436 61.0246 10.9844 59.6709C11.2838 49.7368 14.7718 40.8747 20.5549 32.9892C28.4018 22.2693 38.7615 15.1378 51.9335 12.4124C54.1667 11.885 56.4447 11.5702 58.7371 11.4721C60.0979 11.4494 61.132 10.9179 60.9415 9.03287C60.7011 6.71173 60.996 4.34063 60.8463 2.00132C60.742 0.361531 61.7035 0.584106 62.6606 0.638614C63.6176 0.693122 64.6382 0.275226 64.5339 2.00132C64.3887 4.48598 64.5792 6.9979 64.4658 9.48711C64.4023 10.9588 65.0646 11.5084 66.3663 11.5493C76.6036 11.8718 85.7024 15.5784 93.6944 21.6742C104.104 29.6188 110.98 40.0208 113.511 53.0845C113.965 55.492 114.554 57.8722 114.373 60.3523C114.296 61.4515 114.827 61.5833 115.711 61.5515C117.144 61.4697 118.582 61.497 120.016 61.497Z" fill="black"/>
<path d="M100.982 40.4901C95.439 43.706 89.9689 46.8857 84.4942 50.0562C77.757 53.9596 71.0199 57.857 64.2827 61.7483C63.3438 62.2933 62.5818 62.6931 61.4071 62.0072C49.2753 54.9211 37.1149 47.8759 24.9258 40.8716C24.6894 40.6948 24.4693 40.4971 24.2681 40.2811L38.4152 32.1049C45.9416 27.7624 53.4634 23.4063 60.9807 19.0366C61.9196 18.496 62.668 18.0736 63.8518 18.764C75.9896 25.8471 88.1515 32.8877 100.338 39.8859C100.57 40.0671 100.786 40.2693 100.982 40.4901Z" fill="#87DCFE"/>
<path d="M63.5587 108.677V103.227C63.5587 90.8987 63.5587 78.5662 63.5315 66.2383C63.5315 64.8756 63.8445 64.0444 65.0873 63.3358C77.0769 56.4586 89.0453 49.5497 100.993 42.609C101.249 42.4829 101.516 42.3811 101.791 42.3047C102.335 42.8816 102.099 43.513 102.099 44.0762C102.099 57.5397 102.099 71.0047 102.099 84.4713C102.099 85.6114 102.149 86.6017 100.875 87.333C88.8155 94.2373 76.779 101.18 64.7652 108.16C64.5294 108.296 64.2391 108.387 63.5587 108.677Z" fill="#3366BA"/>
<path d="M61.6072 108.798L31.9069 91.6321C29.4213 90.1967 26.9538 88.7295 24.4455 87.3668C23.5656 86.8762 23.1347 86.3266 23.1392 85.2501C23.1815 71.1113 23.1951 56.9694 23.18 42.8246C23.2311 42.5885 23.3071 42.3586 23.4068 42.1387L28.2782 44.9368C38.9313 51.0992 49.5873 57.2556 60.2464 63.4059C61.2761 63.9964 61.7569 64.6051 61.7523 65.8588C61.7024 79.772 61.7206 93.6898 61.7206 107.603C61.7206 107.866 61.6707 108.153 61.6072 108.798Z" fill="#4498DC"/>
<path d="M63.6137 48.4184C63.5683 49.0043 63.3234 49.4676 62.7065 49.4722C62.0897 49.4767 61.7994 49.0179 61.7585 48.432C61.7348 48.3023 61.741 48.169 61.7764 48.042C61.8119 47.9151 61.8758 47.7979 61.9632 47.6994C62.0507 47.6009 62.1594 47.5236 62.2811 47.4735C62.4028 47.4233 62.5343 47.4016 62.6657 47.41C63.3188 47.3963 63.5865 47.8051 63.6137 48.4184Z" fill="#3A76C5"/>
<path d="M62.7673 52.628C63.0314 52.6778 63.2655 52.8295 63.419 53.0503C63.5726 53.2712 63.6333 53.5437 63.5883 53.809C63.5965 53.9426 63.574 54.0764 63.5224 54.1998C63.4707 54.3233 63.3914 54.4332 63.2905 54.5211C63.1897 54.6089 63.0699 54.6723 62.9407 54.7064C62.8114 54.7404 62.676 54.7442 62.5451 54.7175C61.8874 54.6539 61.6696 54.1951 61.7467 53.5955C61.7478 53.4641 61.7754 53.3343 61.8277 53.2138C61.8801 53.0933 61.9562 52.9847 62.0515 52.8943C62.1468 52.804 62.2593 52.7339 62.3823 52.6881C62.5053 52.6423 62.6362 52.6219 62.7673 52.628Z" fill="#3B75C3"/>
<path d="M62.6642 31.2793C62.7937 31.2867 62.9203 31.3201 63.0366 31.3775C63.1528 31.4349 63.2564 31.5152 63.341 31.6135C63.4257 31.7119 63.4897 31.8262 63.5293 31.9499C63.5688 32.0735 63.5832 32.2038 63.5714 32.3331C63.5939 32.4631 63.5871 32.5964 63.5513 32.7233C63.5155 32.8503 63.4517 32.9675 63.3647 33.0665C63.2776 33.1654 63.1695 33.2436 63.0482 33.2951C62.927 33.3466 62.7958 33.3703 62.6642 33.3642C62.5318 33.3814 62.3973 33.3671 62.2715 33.3223C62.1456 33.2776 62.0321 33.2038 61.9402 33.1068C61.8483 33.0099 61.7805 32.8926 61.7424 32.7644C61.7042 32.6363 61.6968 32.501 61.7208 32.3695C61.7021 32.0997 61.7908 31.8336 61.9677 31.6292C62.1445 31.4249 62.395 31.2991 62.6642 31.2793Z" fill="#3B75C4"/>
<path d="M63.6092 27.1632C63.5185 27.7491 63.2237 28.1852 62.5887 28.1125C62.4568 28.0978 62.3293 28.0561 62.2141 27.9901C62.0989 27.9241 61.9985 27.8351 61.919 27.7287C61.8395 27.6223 61.7826 27.5006 61.7519 27.3713C61.7212 27.242 61.7173 27.1078 61.7405 26.9769C61.7277 26.8451 61.7461 26.7122 61.7942 26.5888C61.8422 26.4654 61.9185 26.3551 62.0169 26.2667C62.1154 26.1783 62.2332 26.1143 62.3608 26.0798C62.4885 26.0454 62.6225 26.0415 62.7519 26.0685C63.4096 26.1139 63.6183 26.5636 63.6092 27.1632Z" fill="#3A74C4"/>
<path d="M63.5838 43.2076C63.4704 43.7527 63.1574 44.1797 62.536 44.0797C62.4052 44.0601 62.2797 44.0141 62.167 43.9446C62.0544 43.8751 61.957 43.7835 61.8807 43.6752C61.8044 43.567 61.7508 43.4444 61.7231 43.3148C61.6954 43.1853 61.6942 43.0515 61.7196 42.9214C61.7604 42.2991 62.096 41.9312 62.731 42.0493C62.8648 42.0651 62.9939 42.1082 63.1104 42.176C63.2269 42.2437 63.3282 42.3347 63.4082 42.4433C63.4881 42.5519 63.5449 42.6757 63.5751 42.8072C63.6053 42.9387 63.6083 43.0749 63.5838 43.2076Z" fill="#3574C2"/>
<path d="M63.6109 37.6795C63.5474 38.2654 63.2752 38.6924 62.6629 38.7378C62.0506 38.7833 61.7195 38.3517 61.7195 37.7522C61.7044 37.6213 61.7163 37.4888 61.7544 37.3627C61.7926 37.2367 61.8561 37.1198 61.9411 37.0193C62.0262 36.9189 62.1309 36.8369 62.2488 36.7786C62.3667 36.7202 62.4953 36.6868 62.6266 36.6802C63.2888 36.6393 63.5338 37.1208 63.6109 37.6795Z" fill="#3876C6"/>
<path d="M63.5978 58.9046C63.5978 59.4996 63.3438 59.963 62.7133 60.0038C62.0829 60.0447 61.7744 59.6041 61.7381 59.0136C61.7194 58.7845 61.7881 58.5569 61.9303 58.3765C62.0726 58.1961 62.2778 58.0764 62.5047 58.0415C63.1261 57.9325 63.4617 58.3277 63.5978 58.9046Z" fill="#3778C6"/>
<path d="M63.6055 21.7376C63.5057 22.3099 63.2381 22.7732 62.5986 22.7142C62.3581 22.6858 62.1363 22.5699 61.9754 22.3887C61.8145 22.2074 61.7256 21.9733 61.7256 21.7307C61.7256 21.4882 61.8145 21.2541 61.9754 21.0728C62.1363 20.8916 62.3581 20.7757 62.5986 20.7473C63.2608 20.7201 63.533 21.1471 63.6055 21.7376Z" fill="#3778C6"/>
<path d="M86.2142 76.7115C86.2195 76.9808 86.1213 77.2418 85.9397 77.4405C85.7582 77.6392 85.5073 77.7604 85.2391 77.779C85.0889 77.8054 84.9346 77.7974 84.788 77.7554C84.6413 77.7135 84.5061 77.6387 84.3926 77.5368C84.279 77.4349 84.19 77.3084 84.1324 77.167C84.0747 77.0257 84.0499 76.873 84.0597 76.7206C84.0505 76.5876 84.0682 76.4541 84.1118 76.3281C84.1553 76.2021 84.2239 76.0862 84.3132 75.9873C84.4026 75.8885 84.511 75.8088 84.6319 75.7529C84.7528 75.697 84.8837 75.6662 85.0168 75.6622C85.7607 75.5986 86.1145 76.0483 86.2142 76.7115Z" fill="#3E92D8"/>
<path d="M77.0612 71.4195C77.0594 71.5511 77.0302 71.6809 76.9757 71.8006C76.9211 71.9203 76.8422 72.0273 76.7441 72.1149C76.646 72.2025 76.5308 72.2686 76.4058 72.3092C76.2808 72.3498 76.1488 72.364 76.018 72.3507C75.8863 72.3556 75.7549 72.334 75.6316 72.2873C75.5083 72.2405 75.3956 72.1696 75.3001 72.0786C75.2046 71.9876 75.1282 71.8784 75.0755 71.7574C75.0227 71.6365 74.9946 71.5061 74.9929 71.3741C74.943 70.7927 75.2106 70.3021 75.8411 70.3067C76.4716 70.3112 76.8526 70.829 77.0612 71.4195Z" fill="#4196DA"/>
<path d="M80.3817 73C80.6789 73.0347 80.9564 73.1666 81.1712 73.3751C81.3861 73.5837 81.5262 73.8574 81.5701 74.1538C81.6427 74.7851 81.1165 75.0622 80.5632 75.0622C80.4317 75.0665 80.3008 75.0447 80.1778 74.998C80.0548 74.9514 79.9422 74.8809 79.8465 74.7906C79.7509 74.7002 79.674 74.5919 79.6202 74.4717C79.5665 74.3515 79.5371 74.2218 79.5335 74.0902C79.5124 73.9621 79.518 73.831 79.55 73.7052C79.5819 73.5793 79.6396 73.4615 79.7193 73.3591C79.799 73.2567 79.899 73.1719 80.013 73.1101C80.127 73.0483 80.2525 73.0108 80.3817 73Z" fill="#3F92D9"/>
<path d="M90.7512 79.3466C90.7195 79.9371 90.5063 80.4413 89.8668 80.414C89.5666 80.3976 89.2825 80.2732 89.0667 80.0638C88.8508 79.8543 88.7178 79.5738 88.692 79.2739C88.6194 78.7652 89.0276 78.4563 89.5039 78.3927C90.2296 78.2837 90.6197 78.6879 90.7512 79.3466Z" fill="#4094DA"/>
<path d="M72.1763 68.6541C72.2035 69.172 72.0221 69.5626 71.4732 69.6262C70.8518 69.6989 70.4436 69.44 70.4391 68.7541C70.4238 68.6416 70.4338 68.5272 70.4686 68.4192C70.5033 68.3112 70.5617 68.2124 70.6396 68.13C70.7175 68.0476 70.8129 67.9838 70.9187 67.9432C71.0245 67.9027 71.138 67.8864 71.251 67.8956C71.3629 67.8751 71.4779 67.8793 71.588 67.9078C71.6981 67.9363 71.8008 67.9884 71.8888 68.0606C71.9768 68.1327 72.0481 68.2232 72.0977 68.3257C72.1474 68.4282 72.1742 68.5402 72.1763 68.6541Z" fill="#4296DC"/>
<path d="M95.2871 82.085C95.2599 82.6755 95.0285 83.1388 94.3799 83.1252C94.2655 83.1232 94.1527 83.0975 94.0485 83.05C93.9444 83.0024 93.8511 82.9339 93.7745 82.8487C93.698 82.7635 93.6397 82.6634 93.6034 82.5547C93.5671 82.446 93.5535 82.3309 93.5635 82.2167C93.5635 81.6353 93.8129 81.1629 94.4706 81.172C94.9968 81.1902 95.2236 81.599 95.2871 82.085Z" fill="#4498DC"/>
<path d="M66.7121 65.207C66.84 65.2151 66.9651 65.2485 67.0801 65.3052C67.1952 65.362 67.2978 65.441 67.3822 65.5377C67.4665 65.6345 67.5309 65.747 67.5716 65.8687C67.6123 65.9905 67.6285 66.1192 67.6192 66.2472C67.6192 66.8059 67.1656 66.9468 66.6848 66.924C66.5739 66.9288 66.4633 66.9088 66.3611 66.8655C66.2588 66.8222 66.1675 66.7566 66.0937 66.6735C66.0198 66.5905 65.9654 66.492 65.9343 66.3853C65.9032 66.2786 65.8962 66.1662 65.9138 66.0564C65.8956 65.5659 66.0997 65.207 66.7121 65.207Z" fill="#4297DC"/>
<path d="M98.883 83.8613C99.5271 84.0067 99.7902 84.3156 99.7902 84.8243C99.7902 85.4194 99.391 85.5602 98.883 85.5511C98.375 85.542 98.0439 85.2785 98.1074 84.7153C98.1386 84.5124 98.2288 84.3232 98.3667 84.1713C98.5047 84.0194 98.6842 83.9116 98.883 83.8613Z" fill="#4498DC"/>
<path d="M45.8456 73.7992C45.8456 74.6169 45.442 75.0348 44.7571 75.062C44.6259 75.074 44.4937 75.0585 44.3688 75.0165C44.244 74.9744 44.1293 74.9068 44.032 74.8179C43.9347 74.7291 43.8569 74.6208 43.8037 74.5002C43.7505 74.3795 43.723 74.2491 43.7229 74.1172C43.7003 73.9685 43.7112 73.8166 43.7548 73.6726C43.7984 73.5286 43.8737 73.3963 43.975 73.2852C44.0763 73.1742 44.2012 73.0872 44.3404 73.0307C44.4797 72.9743 44.6298 72.9497 44.7797 72.9589C45.0264 72.9567 45.2664 73.0387 45.4602 73.1915C45.654 73.3442 45.7899 73.5586 45.8456 73.7992Z" fill="#7CD3FA"/>
<path d="M40.2107 75.6487C40.4787 75.6423 40.7388 75.7399 40.9366 75.921C41.1344 76.1022 41.2546 76.3529 41.2721 76.6208C41.2957 76.7707 41.2852 76.9239 41.2414 77.0692C41.1976 77.2144 41.1217 77.3479 41.0192 77.4597C40.9168 77.5715 40.7905 77.6586 40.6497 77.7147C40.5089 77.7708 40.3573 77.7944 40.2062 77.7836C40.0745 77.7963 39.9415 77.7813 39.8159 77.7396C39.6903 77.6979 39.5747 77.6305 39.4766 77.5416C39.3784 77.4527 39.2998 77.3443 39.2458 77.2233C39.1919 77.1023 39.1636 76.9714 39.163 76.8388C39.1176 76.1211 39.544 75.7532 40.2107 75.6487Z" fill="#77D1F8"/>
<path d="M26.0907 83.81C26.2384 83.79 26.3886 83.8026 26.5309 83.847C26.6732 83.8914 26.8041 83.9664 26.9143 84.0668C27.0246 84.1673 27.1115 84.2907 27.169 84.4284C27.2266 84.5661 27.2533 84.7147 27.2473 84.8638C27.2658 85.0875 27.2009 85.3102 27.0653 85.4888C26.9296 85.6675 26.7327 85.7895 26.5125 85.8314C26.2148 85.8663 25.9152 85.7833 25.6779 85.5999C25.4405 85.4165 25.2843 85.1475 25.2425 84.8502C25.0883 84.2279 25.5509 83.9372 26.0907 83.81Z" fill="#7ED5FC"/>
<path d="M54.9587 68.8157C54.961 68.9461 54.9334 69.0753 54.878 69.1933C54.8227 69.3113 54.7411 69.4151 54.6395 69.4967C54.5379 69.5782 54.419 69.6354 54.292 69.6638C54.1649 69.6922 54.033 69.6911 53.9064 69.6606C53.3349 69.6197 52.8723 69.3563 52.9176 68.7158C52.963 68.0753 53.4438 67.8664 54.0108 67.8618C54.1399 67.8435 54.2716 67.8556 54.3952 67.8971C54.5189 67.9386 54.6312 68.0085 54.7232 68.1011C54.8153 68.1937 54.8845 68.3065 54.9253 68.4305C54.9662 68.5546 54.9776 68.6865 54.9587 68.8157Z" fill="#7CD7FC"/>
<path d="M50.3807 71.2752C50.3855 71.4264 50.3579 71.5769 50.2995 71.7164C50.2411 71.8559 50.1534 71.9812 50.0424 72.0838C49.9314 72.1863 49.7996 72.2638 49.6561 72.3108C49.5125 72.3578 49.3605 72.3734 49.2104 72.3563C49.0972 72.3633 48.9837 72.3466 48.8772 72.3072C48.7708 72.2678 48.6737 72.2066 48.5922 72.1275C48.5106 72.0485 48.4465 71.9532 48.4038 71.8479C48.3611 71.7426 48.3407 71.6296 48.3441 71.516C48.3441 70.7665 48.9428 70.5167 49.5552 70.4304C50.1675 70.3441 50.299 70.8074 50.3807 71.2752Z" fill="#7FD6FC"/>
<path d="M31.8446 82.0493C31.7992 82.6125 31.5815 83.0849 30.9374 83.1031C30.2933 83.1213 30.0303 82.6489 30.0303 82.0901C30.0303 81.5314 30.2616 81.0999 30.9102 81.0863C31.5588 81.0727 31.831 81.4633 31.8446 82.0493Z" fill="#7ED5FC"/>
<path d="M36.39 79.2644C36.39 79.8504 36.1768 80.3409 35.5554 80.4C34.934 80.459 34.5938 79.9957 34.6075 79.4097C34.6031 79.2767 34.6259 79.1442 34.6743 79.0202C34.7227 78.8963 34.7959 78.7835 34.8892 78.6887C34.9826 78.594 35.0942 78.5192 35.2173 78.469C35.3404 78.4188 35.4724 78.3943 35.6053 78.3968C36.1859 78.3605 36.3583 78.7647 36.39 79.2644Z" fill="#7DD6FB"/>
<path d="M58.5724 65.2422C58.7917 65.2404 59.0034 65.3219 59.1651 65.4702C59.3267 65.6186 59.4261 65.8228 59.4433 66.0417C59.4739 66.1493 59.4789 66.2626 59.4577 66.3725C59.4365 66.4823 59.3898 66.5856 59.3214 66.6741C59.2529 66.7625 59.1646 66.8336 59.0637 66.8816C58.9628 66.9295 58.852 66.953 58.7403 66.9501C58.1687 67.0092 57.7016 66.8457 57.7515 66.1416C57.7527 65.9165 57.8374 65.6998 57.989 65.5336C58.1407 65.3675 58.3486 65.2636 58.5724 65.2422Z" fill="#7FDAFD"/>
</svg>
